<svg width="21" height="21" viewBox="0 0 21 21" fill="none" xmlns="http://www.w3.org/2000/svg">
<g clip-path="url(#clip0)">
<path d="M20.815 4.17215L14.4462 10.5L20.815 16.8278C20.9302 16.5872 21 16.3212 21 16.0371V4.96289C21 4.67877 20.9302 4.41279 20.815 4.17215Z" fill="#141B69"/>
<path d="M19.1543 3.11719H1.84567C1.56156 3.11719 1.29557 3.18704 1.05493 3.30217L9.19501 11.4012C9.91476 12.121 11.0852 12.121 11.8049 11.4012L19.945 3.30217C19.7044 3.18704 19.4384 3.11719 19.1543 3.11719Z" fill="#141B69"/>
<path d="M0.18498 4.17215C0.0698496 4.41279 0 4.67877 0 4.96289V16.0371C0 16.3212 0.0698496 16.5872 0.18498 16.8278L6.55385 10.5L0.18498 4.17215Z" fill="#141B69"/>
<path d="M13.5761 11.37L12.6749 12.2712C11.4756 13.4705 9.52425 13.4705 8.32499 12.2712L7.4238 11.37L1.05493 17.6978C1.29557 17.813 1.56156 17.8828 1.84567 17.8828H19.1543C19.4384 17.8828 19.7044 17.813 19.945 17.6978L13.5761 11.37Z" fill="#141B69"/>
</g>
<defs>
<clipPath id="clip0">
<rect width="21" height="21" fill="white"/>
</clipPath>
</defs>
</svg>
