<svg width="11" height="21" viewBox="0 0 11 21" fill="none" xmlns="http://www.w3.org/2000/svg">
<path d="M4.08894 0.558761C3.40326 0.908926 2.87541 1.4694 2.5989 2.1409C2.29065 3.04648 2.15584 3.99384 2.2004 4.94129V6.0646H0V9.22888H2.2004V21H6.16807V9.10231H9.13082V5.93803H6.16807V4.878C6.098 4.32853 6.22572 3.77317 6.53191 3.29586C6.69746 3.15322 6.89422 3.04422 7.10924 2.97604C7.32426 2.90786 7.55266 2.88206 7.77939 2.90033C8.39327 2.90805 9.00396 2.98241 9.59862 3.12183L10.1357 0.558761C9.05641 0.206217 7.92066 0.0191084 6.77448 0.00501158C5.84106 -0.0341846 4.91334 0.15711 4.08894 0.558761Z" fill="#141B69"/>
</svg>
