<svg width="21" height="13" viewBox="0 0 21 13" fill="none" xmlns="http://www.w3.org/2000/svg">
<path d="M17.4256 7.0245C17.0861 6.59575 17.1833 6.405 17.4256 6.02175C17.43 6.01737 20.2326 2.14462 20.5214 0.83125L20.5231 0.830375C20.6666 0.35175 20.5231 0 19.8293 0H17.5333C16.9488 0 16.6793 0.301875 16.5349 0.639625C16.5349 0.639625 15.3659 3.43787 13.7121 5.25175C13.1784 5.77588 12.9316 5.94388 12.6403 5.94388C12.4968 5.94388 12.2736 5.77588 12.2736 5.29725V0.830375C12.2736 0.256375 12.11 0 11.6261 0H8.01588C7.64925 0 7.43138 0.26775 7.43138 0.517125C7.43138 1.06138 8.25825 1.1865 8.344 2.71775V6.04012C8.344 6.76813 8.21188 6.902 7.91875 6.902C7.13825 6.902 5.24388 4.09237 4.12125 0.87675C3.89463 0.252875 3.67325 0.000874937 3.08438 0.000874937H0.7875C0.132125 0.000874937 0 0.30275 0 0.6405C0 1.23725 0.7805 4.20437 3.6295 8.12437C5.52825 10.8001 8.20225 12.25 10.6348 12.25C12.0969 12.25 12.2754 11.928 12.2754 11.3741C12.2754 8.81738 12.1433 8.57587 12.8756 8.57587C13.2151 8.57587 13.7996 8.74388 15.1646 10.0345C16.7248 11.5649 16.9811 12.25 17.8544 12.25H20.1504C20.8049 12.25 21.1365 11.928 20.9458 11.2928C20.5091 9.95662 17.5586 7.20825 17.4256 7.0245Z" fill="#141B69"/>
</svg>
